<svg xmlns="http://www.w3.org/2000/svg" viewBox="0 0 139.32 107.76"><defs><style>.cls-1{fill:#babb39;}</style></defs><title>elephant_gold</title><g id="Layer_2" data-name="Layer 2"><g id="Layer_1-2" data-name="Layer 1"><path class="cls-1" d="M123.47,43.51l10.28,22.17,1.17-.48c-2.27-6.3-4.29-12.71-6.88-18.87-3.71-8.82-6.59-18-13.52-25.28C108,14.2,100.54,9.16,91.26,7.5a25.32,25.32,0,0,0-11.12.83c-7.53,2.19-15,3-22.59.94a7.31,7.31,0,0,1-3.7-2c-8.43-10.58-19.35-9.51-26.34,2-2,3.37-6.54,5.2-9.69,8-2.6,2.31-5.73,4.58-7.13,7.57-4.19,9-4.79,18.7-2.64,28.3,1.8,8,.1,14-8,17.51l.53,1.48h9c.18,9.36,1.7,18.49,12.11,22.6C28,97.29,32.14,95.8,37,90.26l-3.3-2.4a1,1,0,0,0-.56.24C31,90.25,28.81,91.48,25.62,90,20.9,87.9,19,84,18.93,79.28c-.11-5.8.12-11.6.36-17.4S29.22,46.09,34.87,45.6c4.9-.42,12.07,6.6,11.53,11.7-1.14,10.75-2.3,21.5-4,32.16-.58,3.59-2.62,7.08-4.56,10.27s-1.38,4.55,2.31,4.62c2,0,4,0,6,0,6.31,0,5.47,0,5.82-6.08.33-5.8,2.67-11.48,4.8-17.1,3,7.86,4.06,15.47-4.1,22.9,6.39.53,11.09,1.11,15.81,1.25,2.86.09,3.07-1.62,2.82-4.38-1-11.75-1.63-23.54-2.35-35.32,0-.42.36-.87.16-.43l26,3.56c.84,5.1,2.92,11.4,2.62,17.59-.29,5.93-3,11.73-4.86,18.11,3.82,0,8.4.16,12.94-.13.93-.06,2.41-1.74,2.52-2.79.42-4,.45-8.13.52-12.2s0-8.32,0-12.92c6.72,2.38,10.44,7.47,12.71,13.24,2.17,5.5,3,11.51,4.64,18.08,4-2.64,8.37-5.41,12.55-8.47.63-.46.77-2.58.27-3.42-4.7-7.91-9.73-15.63-14.33-23.6a19.75,19.75,0,0,1-2.6-8.42c-.38-6.6-.12-13.24-.12-19.86Z"/></g></g></svg>